<svg overflow="visible" width="168" height="141" viewBox="0 0 168 141" fill="none" xmlns="http://www.w3.org/2000/svg">
<foreignObject x="34.6412" y="5.14984e-05" width="120.281" height="118.096"><div xmlns="http://www.w3.org/1999/xhtml" style="backdrop-filter:blur(5.45px);clip-path:url(#bgblur_0_16_6148_clip_path);height:100%;width:100%"></div></foreignObject><g filter="url(#filter0_dd_16_6148)" data-figma-bg-blur-radius="10.8957">
<mask id="path-1-inside-1_16_6148" fill="white">
<path d="M100.55 30.4285C101.007 30.1938 101.468 29.9788 101.933 29.7831C104.437 28.7294 106.239 31.8719 105.485 34.4821C104.361 38.3716 104.663 42.6809 106.661 46.5651C109.57 52.222 115.306 55.476 121.256 55.4912C123.975 55.4981 126.501 58.103 124.793 60.2189C123.127 62.2828 121.014 64.0406 118.504 65.3319C108.865 70.2895 97.0329 66.4949 92.0752 56.8568C87.1176 47.2186 90.9121 35.3861 100.55 30.4285Z"/>
</mask>
<path d="M100.55 30.4285C101.007 30.1938 101.468 29.9788 101.933 29.7831C104.437 28.7294 106.239 31.8719 105.485 34.4821C104.361 38.3716 104.663 42.6809 106.661 46.5651C109.57 52.222 115.306 55.476 121.256 55.4912C123.975 55.4981 126.501 58.103 124.793 60.2189C123.127 62.2828 121.014 64.0406 118.504 65.3319C108.865 70.2895 97.0329 66.4949 92.0752 56.8568C87.1176 47.2186 90.9121 35.3861 100.55 30.4285Z" fill="url(#paint0_linear_16_6148)"/>
<path d="M100.55 30.4285L99.8384 29.0444L99.8383 29.0444L100.55 30.4285ZM106.661 46.5651L105.277 47.2771L105.277 47.2771L106.661 46.5651ZM118.504 65.3319L119.215 66.7161L119.216 66.716L118.504 65.3319ZM92.0752 56.8568L90.6911 57.5688L90.6911 57.5688L92.0752 56.8568ZM121.256 55.4912L121.252 57.0477L121.256 55.4912ZM124.793 60.2189L126.004 61.1965L124.793 60.2189ZM101.933 29.7831L101.329 28.3484L101.933 29.7831ZM100.55 30.4285L101.262 31.8127C101.683 31.5963 102.108 31.3981 102.537 31.2178L101.933 29.7831L101.329 28.3484C100.827 28.5595 100.33 28.7914 99.8384 29.0444L100.55 30.4285ZM105.485 34.4821L103.989 34.0502C102.76 38.3059 103.09 43.0259 105.277 47.2771L106.661 46.5651L108.045 45.8532C106.236 42.336 105.962 38.4372 106.98 34.914L105.485 34.4821ZM106.661 46.5651L105.277 47.2771C108.463 53.4714 114.743 57.0311 121.252 57.0477L121.256 55.4912L121.26 53.9347C115.868 53.9209 110.678 50.9726 108.045 45.8532L106.661 46.5651ZM124.793 60.2189L123.582 59.2414C122.05 61.1397 120.105 62.7577 117.792 63.9477L118.504 65.3319L119.216 66.716C121.922 65.3236 124.205 63.4259 126.004 61.1965L124.793 60.2189ZM118.504 65.3319L117.792 63.9477C108.918 68.5121 98.0238 65.0185 93.4594 56.1448L92.0752 56.8568L90.6911 57.5688C96.0419 67.9713 108.813 72.0668 119.215 66.7161L118.504 65.3319ZM92.0752 56.8568L93.4594 56.1449C88.895 47.2711 92.3885 36.3771 101.262 31.8127L100.55 30.4285L99.8383 29.0444C89.4357 34.3952 85.3403 47.1661 90.6911 57.5688L92.0752 56.8568ZM121.256 55.4912L121.252 57.0477C122.154 57.05 123.025 57.4998 123.485 58.056C123.704 58.3215 123.78 58.5478 123.791 58.7006C123.8 58.8249 123.777 58.9998 123.582 59.2414L124.793 60.2189L126.004 61.1965C126.663 60.3801 126.965 59.4359 126.896 58.4765C126.828 57.5455 126.422 56.7234 125.884 56.0724C124.828 54.7954 123.077 53.9393 121.26 53.9347L121.256 55.4912ZM101.933 29.7831L102.537 31.2178C102.823 31.0974 102.997 31.1239 103.113 31.1667C103.256 31.2192 103.452 31.3533 103.645 31.6362C104.05 32.229 104.239 33.1863 103.989 34.0502L105.485 34.4821L106.98 34.914C107.484 33.1677 107.15 31.2487 106.216 29.8811C105.74 29.1838 105.063 28.5667 104.188 28.2448C103.285 27.9132 102.295 27.9419 101.329 28.3484L101.933 29.7831Z" fill="url(#paint1_linear_16_6148)" mask="url(#path-1-inside-1_16_6148)"/>
</g>
<foreignObject x="6.86646e-05" y="23.6647" width="149.853" height="126.55"><div xmlns="http://www.w3.org/1999/xhtml" style="backdrop-filter:blur(5.45px);clip-path:url(#bgblur_1_16_6148_clip_path);height:100%;width:100%"></div></foreignObject><g filter="url(#filter1_d_16_6148)" data-figma-bg-blur-radius="10.8957">
<mask id="path-3-inside-2_16_6148" fill="white">
<path d="M90.9668 50.9039C101.998 50.9039 110.94 59.8465 110.94 70.8776C110.94 71.8014 110.876 72.7107 110.755 73.6012H114.118V73.6031C114.169 73.6026 114.219 73.6012 114.27 73.6012C121.456 73.6012 127.283 79.4279 127.283 86.6149C127.283 93.8017 121.456 99.6276 114.27 99.6276C114.219 99.6276 114.169 99.6262 114.118 99.6256V99.6276H68.4209L68.4219 99.6256C68.3713 99.6262 68.3203 99.6276 68.2695 99.6276C61.0828 99.6274 55.257 93.8016 55.2568 86.6149C55.2568 79.428 61.0827 73.6014 68.2695 73.6012C69.2866 73.6012 70.2767 73.7184 71.2266 73.9391C71.0731 72.9411 70.9932 71.9185 70.9932 70.8776C70.9933 59.8466 79.9359 50.9041 90.9668 50.9039Z"/>
</mask>
<path d="M90.9668 50.9039C101.998 50.9039 110.94 59.8465 110.94 70.8776C110.94 71.8014 110.876 72.7107 110.755 73.6012H114.118V73.6031C114.169 73.6026 114.219 73.6012 114.27 73.6012C121.456 73.6012 127.283 79.4279 127.283 86.6149C127.283 93.8017 121.456 99.6276 114.27 99.6276C114.219 99.6276 114.169 99.6262 114.118 99.6256V99.6276H68.4209L68.4219 99.6256C68.3713 99.6262 68.3203 99.6276 68.2695 99.6276C61.0828 99.6274 55.257 93.8016 55.2568 86.6149C55.2568 79.428 61.0827 73.6014 68.2695 73.6012C69.2866 73.6012 70.2767 73.7184 71.2266 73.9391C71.0731 72.9411 70.9932 71.9185 70.9932 70.8776C70.9933 59.8466 79.9359 50.9041 90.9668 50.9039Z" fill="url(#paint2_linear_16_6148)" shape-rendering="crispEdges"/>
<path d="M90.9668 50.9039V49.3474H90.9668L90.9668 50.9039ZM110.94 70.8776H112.497V70.8775L110.94 70.8776ZM110.755 73.6012L109.213 73.3909C109.152 73.8363 109.287 74.2862 109.582 74.6248C109.878 74.9634 110.305 75.1577 110.755 75.1577V73.6012ZM114.118 73.6012H115.675C115.675 72.7415 114.978 72.0447 114.118 72.0447V73.6012ZM114.118 73.6031H112.562C112.562 74.0191 112.728 74.4177 113.024 74.7101C113.32 75.0025 113.72 75.1643 114.136 75.1596L114.118 73.6031ZM114.27 73.6012V72.0447H114.269L114.27 73.6012ZM127.283 86.6149L128.84 86.6149V86.6149H127.283ZM114.27 99.6276L114.269 101.184H114.27V99.6276ZM114.118 99.6256L114.136 98.0692C113.72 98.0644 113.32 98.2263 113.024 98.5187C112.728 98.8111 112.562 99.2097 112.562 99.6256H114.118ZM114.118 99.6276V101.184C114.978 101.184 115.675 100.487 115.675 99.6276H114.118ZM68.4209 99.6276L67.0287 98.9315C66.7874 99.414 66.8132 99.987 67.0968 100.446C67.3804 100.905 67.8814 101.184 68.4209 101.184V99.6276ZM68.4219 99.6256L69.8141 100.322C70.0567 99.8364 70.0291 99.2597 69.7412 98.7997C69.4533 98.3398 68.9467 98.063 68.4041 98.0692L68.4219 99.6256ZM68.2695 99.6276L68.2695 101.184H68.2695V99.6276ZM55.2568 86.6149H53.7003V86.6149L55.2568 86.6149ZM68.2695 73.6012V72.0447H68.2695L68.2695 73.6012ZM71.2266 73.9391L70.8743 75.4552C71.3775 75.5721 71.9059 75.4318 72.2848 75.0806C72.6636 74.7294 72.8435 74.2131 72.765 73.7025L71.2266 73.9391ZM70.9932 70.8776L69.4366 70.8775V70.8776H70.9932ZM90.9668 50.9039V52.4605C101.138 52.4605 109.384 60.7062 109.384 70.8776L110.94 70.8776L112.497 70.8775C112.497 58.9869 102.858 49.3474 90.9668 49.3474V50.9039ZM110.94 70.8776H109.384C109.384 71.7293 109.325 72.5683 109.213 73.3909L110.755 73.6012L112.297 73.8115C112.428 72.853 112.497 71.8735 112.497 70.8776H110.94ZM110.755 73.6012V75.1577H114.118V73.6012V72.0447H110.755V73.6012ZM114.118 73.6012H112.562V73.6031H114.118H115.675V73.6012H114.118ZM114.118 73.6031L114.136 75.1596C114.224 75.1586 114.226 75.1577 114.27 75.1577L114.27 73.6012L114.269 72.0447C114.212 72.0447 114.113 72.0466 114.1 72.0467L114.118 73.6031ZM114.27 73.6012V75.1577C120.597 75.1577 125.727 80.2875 125.727 86.6149H127.283H128.84C128.84 78.5683 122.316 72.0447 114.27 72.0447V73.6012ZM127.283 86.6149L125.727 86.6148C125.727 92.942 120.597 98.071 114.27 98.071V99.6276V101.184C122.316 101.184 128.84 94.6615 128.84 86.6149L127.283 86.6149ZM114.27 99.6276L114.27 98.071C114.226 98.071 114.224 98.0702 114.136 98.0692L114.118 99.6256L114.1 101.182C114.113 101.182 114.212 101.184 114.269 101.184L114.27 99.6276ZM114.118 99.6256H112.562V99.6276H114.118H115.675V99.6256H114.118ZM114.118 99.6276V98.071H68.4209V99.6276V101.184H114.118V99.6276ZM68.4209 99.6276L69.8131 100.324L69.8141 100.322L68.4219 99.6256L67.0297 98.9295L67.0287 98.9315L68.4209 99.6276ZM68.4219 99.6256L68.4041 98.0692C68.3168 98.0702 68.3128 98.071 68.2695 98.071V99.6276V101.184C68.3277 101.184 68.4258 101.182 68.4397 101.182L68.4219 99.6256ZM68.2695 99.6276L68.2696 98.071C61.9425 98.0709 56.8135 92.9419 56.8134 86.6148L55.2568 86.6149L53.7003 86.6149C53.7004 94.6613 60.2232 101.184 68.2695 101.184L68.2695 99.6276ZM55.2568 86.6149H56.8134C56.8134 80.2876 61.9425 75.1579 68.2696 75.1577L68.2695 73.6012L68.2695 72.0447C60.223 72.0449 53.7003 78.5685 53.7003 86.6149H55.2568ZM68.2695 73.6012V75.1577C69.1666 75.1577 70.0386 75.2611 70.8743 75.4552L71.2266 73.9391L71.5788 72.4229C70.5148 72.1757 69.4065 72.0447 68.2695 72.0447V73.6012ZM71.2266 73.9391L72.765 73.7025C72.6235 72.7823 72.5497 71.8388 72.5497 70.8776H70.9932H69.4366C69.4366 71.9983 69.5227 73.1 69.6881 74.1757L71.2266 73.9391ZM70.9932 70.8776L72.5497 70.8776C72.5498 60.7063 80.7955 52.4606 90.9668 52.4605L90.9668 50.9039L90.9668 49.3474C79.0762 49.3476 69.4368 58.987 69.4366 70.8775L70.9932 70.8776Z" fill="url(#paint3_linear_16_6148)" mask="url(#path-3-inside-2_16_6148)"/>
</g>
<foreignObject x="39.9473" y="23.6649" width="129.879" height="113.038"><div xmlns="http://www.w3.org/1999/xhtml" style="backdrop-filter:blur(5.45px);clip-path:url(#bgblur_2_16_6148_clip_path);height:100%;width:100%"></div></foreignObject><g filter="url(#filter2_d_16_6148)" data-figma-bg-blur-radius="10.8957">
<mask id="path-5-inside-3_16_6148" fill="white">
<path d="M121.012 50.9042C128.984 50.9042 135.446 57.3668 135.446 65.3387C135.446 66.0065 135.4 66.6639 135.312 67.3075H137.742V67.3094C137.779 67.309 137.816 67.3075 137.853 67.3075C143.046 67.3076 147.257 71.5181 147.257 76.7118C147.257 81.9056 143.046 86.1159 137.853 86.1161C137.816 86.1161 137.779 86.1136 137.742 86.1132V86.1161H104.718L104.72 86.1132C104.683 86.1136 104.646 86.1161 104.608 86.1161C99.4145 86.1161 95.2041 81.9057 95.2041 76.7118C95.2042 71.518 99.4146 67.3075 104.608 67.3075C105.344 67.3075 106.059 67.394 106.745 67.5536C106.634 66.8317 106.577 66.0917 106.577 65.3387C106.577 57.3668 113.04 50.9042 121.012 50.9042Z"/>
</mask>
<path d="M121.012 50.9042C128.984 50.9042 135.446 57.3668 135.446 65.3387C135.446 66.0065 135.4 66.6639 135.312 67.3075H137.742V67.3094C137.779 67.309 137.816 67.3075 137.853 67.3075C143.046 67.3076 147.257 71.5181 147.257 76.7118C147.257 81.9056 143.046 86.1159 137.853 86.1161C137.816 86.1161 137.779 86.1136 137.742 86.1132V86.1161H104.718L104.72 86.1132C104.683 86.1136 104.646 86.1161 104.608 86.1161C99.4145 86.1161 95.2041 81.9057 95.2041 76.7118C95.2042 71.518 99.4146 67.3075 104.608 67.3075C105.344 67.3075 106.059 67.394 106.745 67.5536C106.634 66.8317 106.577 66.0917 106.577 65.3387C106.577 57.3668 113.04 50.9042 121.012 50.9042Z" fill="url(#paint4_linear_16_6148)" shape-rendering="crispEdges"/>
<path d="M121.012 50.9042V49.3476H121.012L121.012 50.9042ZM135.446 65.3387H137.003V65.3387L135.446 65.3387ZM135.312 67.3075L133.77 67.0972C133.71 67.5426 133.844 67.9924 134.14 68.3311C134.435 68.6697 134.863 68.864 135.312 68.864V67.3075ZM137.742 67.3075H139.299C139.299 66.4478 138.602 65.751 137.742 65.751V67.3075ZM137.742 67.3094H136.186C136.186 67.7254 136.352 68.124 136.648 68.4164C136.944 68.7088 137.344 68.8706 137.76 68.8659L137.742 67.3094ZM137.853 67.3075L137.853 65.751H137.853V67.3075ZM147.257 76.7118H148.813V76.7117L147.257 76.7118ZM137.853 86.1161V87.6726H137.853L137.853 86.1161ZM137.742 86.1132L137.76 84.5567C137.344 84.552 136.944 84.7138 136.648 85.0062C136.352 85.2986 136.186 85.6972 136.186 86.1132H137.742ZM137.742 86.1161V87.6726C138.602 87.6726 139.299 86.9757 139.299 86.1161H137.742ZM104.718 86.1161L103.423 85.2527C103.104 85.7303 103.075 86.3444 103.345 86.8505C103.616 87.3567 104.144 87.6726 104.718 87.6726V86.1161ZM104.72 86.1132L106.015 86.9766C106.335 86.4962 106.363 85.8781 106.088 85.3708C105.812 84.8634 105.279 84.55 104.702 84.5567L104.72 86.1132ZM104.608 86.1161L104.608 87.6726H104.608V86.1161ZM95.2041 76.7118L93.6476 76.7117V76.7118H95.2041ZM104.608 67.3075V65.751H104.608L104.608 67.3075ZM106.745 67.5536L106.393 69.0697C106.896 69.1867 107.425 69.0463 107.803 68.695C108.182 68.3437 108.362 67.8274 108.284 67.3167L106.745 67.5536ZM106.577 65.3387L105.021 65.3387V65.3387H106.577ZM121.012 50.9042V52.4607C128.124 52.4607 133.89 58.2264 133.89 65.3388L135.446 65.3387L137.003 65.3387C137.003 56.5072 129.843 49.3476 121.012 49.3476V50.9042ZM135.446 65.3387H133.89C133.89 65.9349 133.849 66.522 133.77 67.0972L135.312 67.3075L136.855 67.5178C136.952 66.8057 137.003 66.0781 137.003 65.3387H135.446ZM135.312 67.3075V68.864H137.742V67.3075V65.751H135.312V67.3075ZM137.742 67.3075H136.186V67.3094H137.742H139.299V67.3075H137.742ZM137.742 67.3094L137.76 68.8659C137.791 68.8655 137.822 68.8647 137.834 68.8644C137.851 68.864 137.854 68.864 137.853 68.864V67.3075V65.751C137.814 65.751 137.78 65.7518 137.761 65.7522C137.736 65.7528 137.73 65.753 137.724 65.753L137.742 67.3094ZM137.853 67.3075L137.852 68.864C142.187 68.8641 145.7 72.3777 145.7 76.7118L147.257 76.7118L148.813 76.7117C148.813 70.6584 143.906 65.7511 137.853 65.751L137.853 67.3075ZM147.257 76.7118H145.7C145.7 81.046 142.187 84.5594 137.852 84.5596L137.853 86.1161L137.853 87.6726C143.906 87.6725 148.813 82.7653 148.813 76.7118H147.257ZM137.853 86.1161V84.5596C137.866 84.5596 137.874 84.56 137.855 84.5593C137.849 84.5591 137.834 84.5585 137.82 84.5581C137.804 84.5576 137.784 84.557 137.76 84.5567L137.742 86.1132L137.724 87.6696C137.719 87.6695 137.717 87.6694 137.72 87.6695C137.724 87.6697 137.728 87.6698 137.74 87.6702C137.758 87.6709 137.802 87.6726 137.853 87.6726V86.1161ZM137.742 86.1132H136.186V86.1161H137.742H139.299V86.1132H137.742ZM137.742 86.1161V84.5596H104.718V86.1161V87.6726H137.742V86.1161ZM104.718 86.1161L106.013 86.9795L106.015 86.9766L104.72 86.1132L103.425 85.2498L103.423 85.2527L104.718 86.1161ZM104.72 86.1132L104.702 84.5567C104.678 84.557 104.658 84.5576 104.642 84.5581C104.628 84.5585 104.613 84.5591 104.607 84.5593C104.588 84.56 104.595 84.5596 104.608 84.5596V86.1161V87.6726C104.659 87.6726 104.703 87.6709 104.721 87.6703C104.748 87.6693 104.743 87.6695 104.738 87.6696L104.72 86.1132ZM104.608 86.1161L104.608 84.5596C100.274 84.5595 96.7606 81.0461 96.7606 76.7118H95.2041H93.6476C93.6476 82.7654 98.5548 87.6726 104.608 87.6726L104.608 86.1161ZM95.2041 76.7118L96.7606 76.7118C96.7608 72.3776 100.274 68.864 104.608 68.864L104.608 67.3075L104.608 65.751C98.5549 65.751 93.6477 70.6584 93.6476 76.7117L95.2041 76.7118ZM104.608 67.3075V68.864C105.221 68.864 105.818 68.9361 106.393 69.0697L106.745 67.5536L107.097 66.0375C106.299 65.852 105.466 65.751 104.608 65.751V67.3075ZM106.745 67.5536L108.284 67.3167C108.185 66.6742 108.134 66.0133 108.134 65.3387H106.577H105.021C105.021 66.1701 105.083 66.9893 105.207 67.7904L106.745 67.5536ZM106.577 65.3387L108.134 65.3388C108.134 58.2265 113.899 52.4607 121.012 52.4607L121.012 50.9042L121.012 49.3476C112.18 49.3477 105.021 56.5072 105.021 65.3387L106.577 65.3387Z" fill="url(#paint5_linear_16_6148)" mask="url(#path-5-inside-3_16_6148)"/>
</g>
<g filter="url(#filter3_dd_16_6148)">
<path d="M73.3987 96.6818C74.13 95.7431 75.6337 96.2006 75.7186 97.3875L76.0739 102.36C76.2344 104.609 74.0906 106.32 71.9343 105.664C69.7779 105.008 68.9493 102.393 70.3345 100.615L73.3987 96.6818Z" fill="url(#paint6_linear_16_6148)" stroke="url(#paint7_linear_16_6148)" stroke-width="1.55653"/>
<path d="M90.802 96.6818C91.5333 95.7431 93.037 96.2006 93.1219 97.3875L93.4772 102.36C93.6377 104.609 91.4939 106.32 89.3376 105.664C87.1813 105.008 86.3526 102.393 87.7378 100.615L90.802 96.6818Z" fill="url(#paint8_linear_16_6148)" stroke="url(#paint9_linear_16_6148)" stroke-width="1.55653"/>
<path d="M108.206 96.6818C108.937 95.7431 110.441 96.2006 110.526 97.3875L110.881 102.36C111.042 104.609 108.898 106.32 106.741 105.664C104.585 105.008 103.756 102.393 105.142 100.615L108.206 96.6818Z" fill="url(#paint10_linear_16_6148)" stroke="url(#paint11_linear_16_6148)" stroke-width="1.55653"/>
</g>
<g filter="url(#filter4_dd_16_6148)">
<path d="M77.9905 110.458C78.7218 109.519 80.2255 109.977 80.3104 111.163L80.6657 116.136C80.8262 118.385 78.6824 120.096 76.5261 119.44C74.3697 118.784 73.5411 116.169 74.9263 114.391L77.9905 110.458Z" fill="url(#paint12_linear_16_6148)" stroke="url(#paint13_linear_16_6148)" stroke-width="1.55653"/>
<path d="M92.6946 110.458C93.4259 109.519 94.9296 109.977 95.0145 111.163L95.3698 116.136C95.5303 118.385 93.3865 120.096 91.2302 119.44C89.0738 118.784 88.2452 116.169 89.6304 114.391L92.6946 110.458Z" fill="url(#paint14_linear_16_6148)" stroke="url(#paint15_linear_16_6148)" stroke-width="1.55653"/>
</g>
<defs>
<filter id="filter0_dd_16_6148" x="34.6412" y="5.14984e-05" width="120.281" height="118.096" filterUnits="userSpaceOnUse" color-interpolation-filters="sRGB">
<feFlood flood-opacity="0" result="BackgroundImageFix"/>
<feColorMatrix in="SourceAlpha" type="matrix" values="0 0 0 0 0 0 0 0 0 0 0 0 0 0 0 0 0 0 127 0" result="hardAlpha"/>
<feOffset dx="-16.3436" dy="11.674"/>
<feGaussianBlur stdDeviation="19.4566"/>
<feComposite in2="hardAlpha" operator="out"/>
<feColorMatrix type="matrix" values="0 0 0 0 0.113438 0 0 0 0 0.148981 0 0 0 0 0.275 0 0 0 0.25 0"/>
<feBlend mode="normal" in2="BackgroundImageFix" result="effect1_dropShadow_16_6148"/>
<feColorMatrix in="SourceAlpha" type="matrix" values="0 0 0 0 0 0 0 0 0 0 0 0 0 0 0 0 0 0 127 0" result="hardAlpha"/>
<feOffset/>
<feGaussianBlur stdDeviation="14.787"/>
<feComposite in2="hardAlpha" operator="out"/>
<feColorMatrix type="matrix" values="0 0 0 0 1 0 0 0 0 0.796078 0 0 0 0 0.184314 0 0 0 0.4 0"/>
<feBlend mode="normal" in2="effect1_dropShadow_16_6148" result="effect2_dropShadow_16_6148"/>
<feBlend mode="normal" in="SourceGraphic" in2="effect2_dropShadow_16_6148" result="shape"/>
</filter>
<clipPath id="bgblur_0_16_6148_clip_path" transform="translate(-34.6412 -5.14984e-05)"><path d="M100.55 30.4285C101.007 30.1938 101.468 29.9788 101.933 29.7831C104.437 28.7294 106.239 31.8719 105.485 34.4821C104.361 38.3716 104.663 42.6809 106.661 46.5651C109.57 52.222 115.306 55.476 121.256 55.4912C123.975 55.4981 126.501 58.103 124.793 60.2189C123.127 62.2828 121.014 64.0406 118.504 65.3319C108.865 70.2895 97.0329 66.4949 92.0752 56.8568C87.1176 47.2186 90.9121 35.3861 100.55 30.4285Z"/>
</clipPath><filter id="filter1_d_16_6148" x="6.86646e-05" y="23.6647" width="149.853" height="126.55" filterUnits="userSpaceOnUse" color-interpolation-filters="sRGB">
<feFlood flood-opacity="0" result="BackgroundImageFix"/>
<feColorMatrix in="SourceAlpha" type="matrix" values="0 0 0 0 0 0 0 0 0 0 0 0 0 0 0 0 0 0 127 0" result="hardAlpha"/>
<feOffset dx="-16.3436" dy="11.674"/>
<feGaussianBlur stdDeviation="19.4566"/>
<feComposite in2="hardAlpha" operator="out"/>
<feColorMatrix type="matrix" values="0 0 0 0 0.113725 0 0 0 0 0.14902 0 0 0 0 0.27451 0 0 0 0.25 0"/>
<feBlend mode="normal" in2="BackgroundImageFix" result="effect1_dropShadow_16_6148"/>
<feBlend mode="normal" in="SourceGraphic" in2="effect1_dropShadow_16_6148" result="shape"/>
</filter>
<clipPath id="bgblur_1_16_6148_clip_path" transform="translate(-6.86646e-05 -23.6647)"><path d="M90.9668 50.9039C101.998 50.9039 110.94 59.8465 110.94 70.8776C110.94 71.8014 110.876 72.7107 110.755 73.6012H114.118V73.6031C114.169 73.6026 114.219 73.6012 114.27 73.6012C121.456 73.6012 127.283 79.4279 127.283 86.6149C127.283 93.8017 121.456 99.6276 114.27 99.6276C114.219 99.6276 114.169 99.6262 114.118 99.6256V99.6276H68.4209L68.4219 99.6256C68.3713 99.6262 68.3203 99.6276 68.2695 99.6276C61.0828 99.6274 55.257 93.8016 55.2568 86.6149C55.2568 79.428 61.0827 73.6014 68.2695 73.6012C69.2866 73.6012 70.2767 73.7184 71.2266 73.9391C71.0731 72.9411 70.9932 71.9185 70.9932 70.8776C70.9933 59.8466 79.9359 50.9041 90.9668 50.9039Z"/>
</clipPath><filter id="filter2_d_16_6148" x="39.9473" y="23.6649" width="129.879" height="113.038" filterUnits="userSpaceOnUse" color-interpolation-filters="sRGB">
<feFlood flood-opacity="0" result="BackgroundImageFix"/>
<feColorMatrix in="SourceAlpha" type="matrix" values="0 0 0 0 0 0 0 0 0 0 0 0 0 0 0 0 0 0 127 0" result="hardAlpha"/>
<feOffset dx="-16.3436" dy="11.674"/>
<feGaussianBlur stdDeviation="19.4566"/>
<feComposite in2="hardAlpha" operator="out"/>
<feColorMatrix type="matrix" values="0 0 0 0 0.113438 0 0 0 0 0.148981 0 0 0 0 0.275 0 0 0 0.25 0"/>
<feBlend mode="normal" in2="BackgroundImageFix" result="effect1_dropShadow_16_6148"/>
<feBlend mode="normal" in="SourceGraphic" in2="effect1_dropShadow_16_6148" result="shape"/>
</filter>
<clipPath id="bgblur_2_16_6148_clip_path" transform="translate(-39.9473 -23.6649)"><path d="M121.012 50.9042C128.984 50.9042 135.446 57.3668 135.446 65.3387C135.446 66.0065 135.4 66.6639 135.312 67.3075H137.742V67.3094C137.779 67.309 137.816 67.3075 137.853 67.3075C143.046 67.3076 147.257 71.5181 147.257 76.7118C147.257 81.9056 143.046 86.1159 137.853 86.1161C137.816 86.1161 137.779 86.1136 137.742 86.1132V86.1161H104.718L104.72 86.1132C104.683 86.1136 104.646 86.1161 104.608 86.1161C99.4145 86.1161 95.2041 81.9057 95.2041 76.7118C95.2042 71.518 99.4146 67.3075 104.608 67.3075C105.344 67.3075 106.059 67.394 106.745 67.5536C106.634 66.8317 106.577 66.0917 106.577 65.3387C106.577 57.3668 113.04 50.9042 121.012 50.9042Z"/>
</clipPath><filter id="filter3_dd_16_6148" x="13.6192" y="58.0436" width="129.958" height="99.1276" filterUnits="userSpaceOnUse" color-interpolation-filters="sRGB">
<feFlood flood-opacity="0" result="BackgroundImageFix"/>
<feColorMatrix in="SourceAlpha" type="matrix" values="0 0 0 0 0 0 0 0 0 0 0 0 0 0 0 0 0 0 127 0" result="hardAlpha"/>
<feOffset dx="-16.3436" dy="11.674"/>
<feGaussianBlur stdDeviation="19.4566"/>
<feComposite in2="hardAlpha" operator="out"/>
<feColorMatrix type="matrix" values="0 0 0 0 0.113438 0 0 0 0 0.148981 0 0 0 0 0.275 0 0 0 0.25 0"/>
<feBlend mode="normal" in2="BackgroundImageFix" result="effect1_dropShadow_16_6148"/>
<feColorMatrix in="SourceAlpha" type="matrix" values="0 0 0 0 0 0 0 0 0 0 0 0 0 0 0 0 0 0 127 0" result="hardAlpha"/>
<feOffset dy="-5.44785"/>
<feGaussianBlur stdDeviation="15.9544"/>
<feComposite in2="hardAlpha" operator="out"/>
<feColorMatrix type="matrix" values="0 0 0 0 0.1375 0 0 0 0 0.74125 0 0 0 0 1 0 0 0 0.3 0"/>
<feBlend mode="normal" in2="effect1_dropShadow_16_6148" result="effect2_dropShadow_16_6148"/>
<feBlend mode="normal" in="SourceGraphic" in2="effect2_dropShadow_16_6148" result="shape"/>
</filter>
<filter id="filter4_dd_16_6148" x="18.211" y="71.8196" width="109.855" height="99.1276" filterUnits="userSpaceOnUse" color-interpolation-filters="sRGB">
<feFlood flood-opacity="0" result="BackgroundImageFix"/>
<feColorMatrix in="SourceAlpha" type="matrix" values="0 0 0 0 0 0 0 0 0 0 0 0 0 0 0 0 0 0 127 0" result="hardAlpha"/>
<feOffset dx="-16.3436" dy="11.674"/>
<feGaussianBlur stdDeviation="19.4566"/>
<feComposite in2="hardAlpha" operator="out"/>
<feColorMatrix type="matrix" values="0 0 0 0 0.113438 0 0 0 0 0.148981 0 0 0 0 0.275 0 0 0 0.25 0"/>
<feBlend mode="normal" in2="BackgroundImageFix" result="effect1_dropShadow_16_6148"/>
<feColorMatrix in="SourceAlpha" type="matrix" values="0 0 0 0 0 0 0 0 0 0 0 0 0 0 0 0 0 0 127 0" result="hardAlpha"/>
<feOffset dy="-5.44785"/>
<feGaussianBlur stdDeviation="15.9544"/>
<feComposite in2="hardAlpha" operator="out"/>
<feColorMatrix type="matrix" values="0 0 0 0 0.1375 0 0 0 0 0.74125 0 0 0 0 1 0 0 0 0.3 0"/>
<feBlend mode="normal" in2="effect1_dropShadow_16_6148" result="effect2_dropShadow_16_6148"/>
<feBlend mode="normal" in="SourceGraphic" in2="effect2_dropShadow_16_6148" result="shape"/>
</filter>
<linearGradient id="paint0_linear_16_6148" x1="95.557" y1="33.3857" x2="113.51" y2="68.289" gradientUnits="userSpaceOnUse">
<stop offset="0.0001" stop-color="#FFCB2F"/>
<stop offset="1" stop-color="#FFCB2F"/>
</linearGradient>
<linearGradient id="paint1_linear_16_6148" x1="96.6021" y1="14.6614" x2="106.588" y2="60.4444" gradientUnits="userSpaceOnUse">
<stop stop-color="white"/>
<stop offset="1" stop-color="white" stop-opacity="0"/>
</linearGradient>
<linearGradient id="paint2_linear_16_6148" x1="91.27" y1="35.3184" x2="91.27" y2="106.437" gradientUnits="userSpaceOnUse">
<stop stop-color="white"/>
<stop offset="1" stop-color="white" stop-opacity="0"/>
</linearGradient>
<linearGradient id="paint3_linear_16_6148" x1="91.27" y1="50.9039" x2="91.27" y2="99.6276" gradientUnits="userSpaceOnUse">
<stop stop-color="white"/>
<stop offset="1" stop-color="white" stop-opacity="0"/>
</linearGradient>
<linearGradient id="paint4_linear_16_6148" x1="123.651" y1="51.9634" x2="123.651" y2="90.095" gradientUnits="userSpaceOnUse">
<stop stop-color="white"/>
<stop offset="1" stop-color="white" stop-opacity="0"/>
</linearGradient>
<linearGradient id="paint5_linear_16_6148" x1="121.23" y1="50.9042" x2="121.23" y2="86.1162" gradientUnits="userSpaceOnUse">
<stop stop-color="white"/>
<stop offset="1" stop-color="white" stop-opacity="0"/>
</linearGradient>
<linearGradient id="paint6_linear_16_6148" x1="76.1098" y1="91.9363" x2="71.7078" y2="106.408" gradientUnits="userSpaceOnUse">
<stop stop-color="#138EFF"/>
<stop offset="1" stop-color="#00E0FF"/>
</linearGradient>
<linearGradient id="paint7_linear_16_6148" x1="76.1098" y1="91.9363" x2="71.7078" y2="106.408" gradientUnits="userSpaceOnUse">
<stop stop-color="white"/>
<stop offset="1" stop-color="white" stop-opacity="0"/>
</linearGradient>
<linearGradient id="paint8_linear_16_6148" x1="93.5132" y1="91.9363" x2="89.1111" y2="106.408" gradientUnits="userSpaceOnUse">
<stop stop-color="#138EFF"/>
<stop offset="1" stop-color="#00E0FF"/>
</linearGradient>
<linearGradient id="paint9_linear_16_6148" x1="93.5132" y1="91.9363" x2="89.1111" y2="106.408" gradientUnits="userSpaceOnUse">
<stop stop-color="white"/>
<stop offset="1" stop-color="white" stop-opacity="0"/>
</linearGradient>
<linearGradient id="paint10_linear_16_6148" x1="110.917" y1="91.9363" x2="106.515" y2="106.408" gradientUnits="userSpaceOnUse">
<stop stop-color="#138EFF"/>
<stop offset="1" stop-color="#00E0FF"/>
</linearGradient>
<linearGradient id="paint11_linear_16_6148" x1="110.917" y1="91.9363" x2="106.515" y2="106.408" gradientUnits="userSpaceOnUse">
<stop stop-color="white"/>
<stop offset="1" stop-color="white" stop-opacity="0"/>
</linearGradient>
<linearGradient id="paint12_linear_16_6148" x1="80.7016" y1="105.712" x2="76.2996" y2="120.184" gradientUnits="userSpaceOnUse">
<stop stop-color="#138EFF"/>
<stop offset="1" stop-color="#00E0FF"/>
</linearGradient>
<linearGradient id="paint13_linear_16_6148" x1="80.7016" y1="105.712" x2="76.2996" y2="120.184" gradientUnits="userSpaceOnUse">
<stop stop-color="white"/>
<stop offset="1" stop-color="white" stop-opacity="0"/>
</linearGradient>
<linearGradient id="paint14_linear_16_6148" x1="95.4057" y1="105.712" x2="91.0037" y2="120.184" gradientUnits="userSpaceOnUse">
<stop stop-color="#138EFF"/>
<stop offset="1" stop-color="#00E0FF"/>
</linearGradient>
<linearGradient id="paint15_linear_16_6148" x1="95.4057" y1="105.712" x2="91.0037" y2="120.184" gradientUnits="userSpaceOnUse">
<stop stop-color="white"/>
<stop offset="1" stop-color="white" stop-opacity="0"/>
</linearGradient>
</defs>
</svg>
