<svg overflow="visible" width="171" height="138" viewBox="0 0 171 138" fill="none" xmlns="http://www.w3.org/2000/svg">
<foreignObject x="0" y="0" width="169.801" height="165.913"><div xmlns="http://www.w3.org/1999/xhtml" style="backdrop-filter:blur(7px);clip-path:url(#bgblur_0_16_6150_clip_path);height:100%;width:100%"></div></foreignObject><g filter="url(#filter0_dd_16_6150)" data-figma-bg-blur-radius="14">
<mask id="path-1-inside-1_16_6150" fill="white">
<path d="M88.118 41.327C91.6802 39.4947 95.429 38.407 99.187 38.0059C100.055 37.9133 100.56 38.9338 100.048 39.6405C94.3865 47.4528 93.2231 58.0926 97.9379 67.2588C104.086 79.2106 118.083 84.4878 130.395 80.0363C131.217 79.7393 132.058 80.5087 131.727 81.3172C128.983 88.0309 123.923 93.8368 116.968 97.4145C101.479 105.381 82.4657 99.2837 74.4991 83.7956C66.5325 68.3074 72.6299 49.2937 88.118 41.327Z"/>
</mask>
<path d="M88.118 41.327C91.6802 39.4947 95.429 38.407 99.187 38.0059C100.055 37.9133 100.56 38.9338 100.048 39.6405C94.3865 47.4528 93.2231 58.0926 97.9379 67.2588C104.086 79.2106 118.083 84.4878 130.395 80.0363C131.217 79.7393 132.058 80.5087 131.727 81.3172C128.983 88.0309 123.923 93.8368 116.968 97.4145C101.479 105.381 82.4657 99.2837 74.4991 83.7956C66.5325 68.3074 72.6299 49.2937 88.118 41.327Z" fill="url(#paint0_linear_16_6150)"/>
<path d="M88.118 41.327L87.2031 39.5485L87.2031 39.5485L88.118 41.327ZM97.9379 67.2588L96.1594 68.1736L96.1594 68.1736L97.9379 67.2588ZM116.968 97.4145L117.882 99.193L117.882 99.193L116.968 97.4145ZM74.4991 83.7956L72.7205 84.7104L72.7205 84.7104L74.4991 83.7956ZM130.395 80.0363L129.715 78.1555L130.395 80.0363ZM131.727 81.3172L129.876 80.5605L131.727 81.3172ZM99.187 38.0059L99.3992 39.9946L99.187 38.0059ZM88.118 41.327L89.0328 43.1055C92.3721 41.3878 95.8823 40.3699 99.3992 39.9946L99.187 38.0059L98.9748 36.0172C94.9757 36.444 90.9882 37.6015 87.2031 39.5485L88.118 41.327ZM100.048 39.6405L98.4286 38.4669C92.3419 46.8658 91.0865 58.3111 96.1594 68.1736L97.9379 67.2588L99.7164 66.344C95.3598 57.874 96.4311 48.0397 101.668 40.8141L100.048 39.6405ZM97.9379 67.2588L96.1594 68.1736C102.773 81.0314 117.829 86.7061 131.075 81.9172L130.395 80.0363L129.715 78.1555C118.336 82.2695 105.398 77.3897 99.7164 66.3439L97.9379 67.2588ZM131.727 81.3172L129.876 80.5605C127.305 86.8497 122.568 92.2846 116.053 95.636L116.968 97.4145L117.882 99.193C125.278 95.3891 130.661 89.2121 133.579 82.0739L131.727 81.3172ZM116.968 97.4145L116.053 95.636C101.547 103.097 83.739 97.3867 76.2776 82.8808L74.4991 83.7956L72.7205 84.7104C81.1924 101.181 101.412 107.665 117.882 99.193L116.968 97.4145ZM74.4991 83.7956L76.2776 82.8808C68.8163 68.3749 74.5269 50.5669 89.0328 43.1055L88.118 41.327L87.2031 39.5485C70.7328 48.0204 64.2488 68.24 72.7205 84.7104L74.4991 83.7956ZM130.395 80.0363L131.075 81.9172C130.722 82.045 130.355 81.9376 130.121 81.7171C129.867 81.4773 129.691 81.0133 129.876 80.5605L131.727 81.3172L133.579 82.0739C134.094 80.8125 133.663 79.5596 132.866 78.8073C132.088 78.0742 130.89 77.7307 129.715 78.1555L130.395 80.0363ZM99.187 38.0059L99.3992 39.9946C98.9133 40.0465 98.5166 39.7494 98.3567 39.4387C98.2096 39.1529 98.2083 38.7709 98.4286 38.4669L100.048 39.6405L101.668 40.8141C102.4 39.8034 102.402 38.5577 101.913 37.6082C101.412 36.6337 100.329 35.8728 98.9748 36.0172L99.187 38.0059Z" fill="url(#paint1_linear_16_6150)" mask="url(#path-1-inside-1_16_6150)"/>
</g>
<foreignObject x="37.2368" y="5.53076" width="107.111" height="107.111"><div xmlns="http://www.w3.org/1999/xhtml" style="backdrop-filter:blur(7px);clip-path:url(#bgblur_1_16_6150_clip_path);height:100%;width:100%"></div></foreignObject><g filter="url(#filter1_dd_16_6150)" data-figma-bg-blur-radius="14">
<path d="M110.343 41.6146C110.769 40.1695 112.815 40.1695 113.242 41.6146C113.387 42.1067 113.772 42.4917 114.264 42.6368C115.709 43.0628 115.709 45.1097 114.264 45.5357C113.772 45.6808 113.387 46.0657 113.242 46.5579C112.815 48.003 110.769 48.003 110.343 46.5579C110.197 46.0657 109.813 45.6808 109.32 45.5357C107.875 45.1097 107.875 43.0628 109.32 42.6368C109.813 42.4917 110.197 42.1067 110.343 41.6146Z" fill="url(#paint2_linear_16_6150)"/>
<path d="M111.301 41.8972C111.445 41.4084 112.139 41.4084 112.283 41.8972C112.524 42.715 113.163 43.3543 113.981 43.5955C114.47 43.7396 114.47 44.4328 113.981 44.5769C113.163 44.818 112.524 45.4574 112.283 46.2751C112.139 46.764 111.445 46.764 111.301 46.2751C111.06 45.4574 110.421 44.818 109.603 44.5769C109.114 44.4328 109.114 43.7396 109.603 43.5955C110.421 43.3544 111.06 42.715 111.301 41.8972Z" stroke="url(#paint3_linear_16_6150)" stroke-width="2"/>
</g>
<foreignObject x="42.335" y="26.1838" width="109.356" height="109.357"><div xmlns="http://www.w3.org/1999/xhtml" style="backdrop-filter:blur(7px);clip-path:url(#bgblur_2_16_6150_clip_path);height:100%;width:100%"></div></foreignObject><g filter="url(#filter2_dd_16_6150)" data-figma-bg-blur-radius="14">
<path d="M116.106 62.61C116.667 60.7085 119.36 60.7085 119.921 62.61C120.111 63.2575 120.618 63.764 121.266 63.9549C123.167 64.5155 123.167 67.2087 121.266 67.7693C120.618 67.9602 120.111 68.4667 119.921 69.1143C119.36 71.0157 116.667 71.0157 116.106 69.1143C115.915 68.4667 115.409 67.9602 114.761 67.7693C112.86 67.2087 112.86 64.5155 114.761 63.9549C115.409 63.764 115.915 63.2575 116.106 62.61Z" fill="url(#paint4_linear_16_6150)"/>
<path d="M117.065 62.8927C117.344 61.9476 118.682 61.9477 118.961 62.8927C119.248 63.8659 120.009 64.6272 120.982 64.9142C121.928 65.1928 121.928 66.531 120.982 66.8097C120.009 67.0966 119.248 67.8581 118.961 68.8312C118.682 69.7763 117.344 69.7763 117.065 68.8312C116.778 67.858 116.017 67.0966 115.044 66.8097C114.099 66.5309 114.099 65.1929 115.044 64.9142C116.017 64.6273 116.779 63.8659 117.065 62.8927Z" stroke="url(#paint5_linear_16_6150)" stroke-width="2"/>
</g>
<foreignObject x="64.2397" y="20.0908" width="105.988" height="105.988"><div xmlns="http://www.w3.org/1999/xhtml" style="backdrop-filter:blur(7px);clip-path:url(#bgblur_3_16_6150_clip_path);height:100%;width:100%"></div></foreignObject><g filter="url(#filter3_dd_16_6150)" data-figma-bg-blur-radius="14">
<path d="M137.013 56.0036C137.372 54.7866 139.096 54.7866 139.454 56.0036C139.577 56.418 139.901 56.7422 140.315 56.8643C141.532 57.2231 141.532 58.9468 140.315 59.3056C139.901 59.4278 139.577 59.7519 139.454 60.1663C139.096 61.3833 137.372 61.3833 137.013 60.1663C136.891 59.7519 136.567 59.4278 136.152 59.3056C134.936 58.9468 134.936 57.2231 136.152 56.8643C136.567 56.7422 136.891 56.418 137.013 56.0036Z" fill="url(#paint6_linear_16_6150)"/>
<path d="M138.234 56.0908C138.302 56.0908 138.36 56.1113 138.399 56.1387C138.431 56.1612 138.47 56.2001 138.496 56.2861C138.714 57.0263 139.293 57.605 140.033 57.8232C140.119 57.8486 140.158 57.8878 140.18 57.9199C140.208 57.9592 140.228 58.0166 140.228 58.085C140.228 58.1533 140.208 58.2108 140.18 58.25C140.158 58.2822 140.119 58.3213 140.033 58.3467C139.293 58.5649 138.714 59.1437 138.496 59.8838C138.47 59.9698 138.431 60.0088 138.399 60.0312C138.36 60.0586 138.302 60.0791 138.234 60.0791C138.166 60.0791 138.108 60.0586 138.069 60.0312C138.037 60.0088 137.998 59.9698 137.972 59.8838C137.754 59.1437 137.175 58.5649 136.435 58.3467C136.349 58.3213 136.31 58.2822 136.288 58.25C136.26 58.2108 136.24 58.1533 136.24 58.085C136.24 58.0166 136.26 57.9592 136.288 57.9199C136.31 57.8877 136.349 57.8486 136.435 57.8232C137.175 57.605 137.754 57.0263 137.972 56.2861C137.998 56.2002 138.037 56.1612 138.069 56.1387C138.108 56.1113 138.166 56.0908 138.234 56.0908Z" stroke="url(#paint7_linear_16_6150)" stroke-width="2"/>
</g>
<foreignObject x="57.2402" y="1.8147" width="105.988" height="105.988"><div xmlns="http://www.w3.org/1999/xhtml" style="backdrop-filter:blur(7px);clip-path:url(#bgblur_4_16_6150_clip_path);height:100%;width:100%"></div></foreignObject><g filter="url(#filter4_dd_16_6150)" data-figma-bg-blur-radius="14">
<path d="M130.014 37.7275C130.373 36.5105 132.096 36.5105 132.455 37.7275C132.577 38.1419 132.901 38.466 133.316 38.5882C134.533 38.947 134.533 40.6707 133.316 41.0294C132.901 41.1516 132.577 41.4758 132.455 41.8902C132.096 43.1071 130.373 43.1071 130.014 41.8902C129.892 41.4758 129.567 41.1516 129.153 41.0294C127.936 40.6707 127.936 38.947 129.153 38.5882C129.567 38.466 129.892 38.1419 130.014 37.7275Z" fill="url(#paint8_linear_16_6150)"/>
<path d="M131.234 37.8147C131.303 37.8147 131.36 37.8352 131.399 37.8625C131.432 37.885 131.471 37.924 131.496 38.01C131.714 38.7501 132.293 39.3289 133.033 39.5471C133.119 39.5725 133.158 39.6116 133.181 39.6438C133.208 39.683 133.229 39.7405 133.229 39.8088C133.229 39.8772 133.208 39.9346 133.181 39.9739C133.158 40.006 133.119 40.0452 133.033 40.0706C132.293 40.2888 131.714 40.8675 131.496 41.6077C131.471 41.6936 131.432 41.7326 131.399 41.7551C131.36 41.7825 131.303 41.803 131.234 41.803C131.166 41.803 131.109 41.7825 131.069 41.7551C131.037 41.7326 130.998 41.6936 130.973 41.6077C130.754 40.8675 130.176 40.2888 129.436 40.0706C129.35 40.0452 129.311 40.0061 129.288 39.9739C129.261 39.9346 129.24 39.8772 129.24 39.8088C129.24 39.7405 129.261 39.683 129.288 39.6438C129.311 39.6116 129.35 39.5725 129.436 39.5471C130.176 39.3289 130.754 38.7501 130.973 38.01C130.998 37.924 131.037 37.885 131.069 37.8625C131.109 37.8352 131.166 37.8147 131.234 37.8147Z" stroke="url(#paint9_linear_16_6150)" stroke-width="2"/>
</g>
<defs>
<filter id="filter0_dd_16_6150" x="0" y="0" width="169.801" height="165.913" filterUnits="userSpaceOnUse" color-interpolation-filters="sRGB">
<feFlood flood-opacity="0" result="BackgroundImageFix"/>
<feColorMatrix in="SourceAlpha" type="matrix" values="0 0 0 0 0 0 0 0 0 0 0 0 0 0 0 0 0 0 127 0" result="hardAlpha"/>
<feOffset dx="-21" dy="15"/>
<feGaussianBlur stdDeviation="25"/>
<feComposite in2="hardAlpha" operator="out"/>
<feColorMatrix type="matrix" values="0 0 0 0 0.113438 0 0 0 0 0.148981 0 0 0 0 0.275 0 0 0 0.25 0"/>
<feBlend mode="normal" in2="BackgroundImageFix" result="effect1_dropShadow_16_6150"/>
<feColorMatrix in="SourceAlpha" type="matrix" values="0 0 0 0 0 0 0 0 0 0 0 0 0 0 0 0 0 0 127 0" result="hardAlpha"/>
<feOffset/>
<feGaussianBlur stdDeviation="19"/>
<feComposite in2="hardAlpha" operator="out"/>
<feColorMatrix type="matrix" values="0 0 0 0 1 0 0 0 0 0.796078 0 0 0 0 0.184314 0 0 0 0.4 0"/>
<feBlend mode="normal" in2="effect1_dropShadow_16_6150" result="effect2_dropShadow_16_6150"/>
<feBlend mode="normal" in="SourceGraphic" in2="effect2_dropShadow_16_6150" result="shape"/>
</filter>
<clipPath id="bgblur_0_16_6150_clip_path" transform="translate(0 0)"><path d="M88.118 41.327C91.6802 39.4947 95.429 38.407 99.187 38.0059C100.055 37.9133 100.56 38.9338 100.048 39.6405C94.3865 47.4528 93.2231 58.0926 97.9379 67.2588C104.086 79.2106 118.083 84.4878 130.395 80.0363C131.217 79.7393 132.058 80.5087 131.727 81.3172C128.983 88.0309 123.923 93.8368 116.968 97.4145C101.479 105.381 82.4657 99.2837 74.4991 83.7956C66.5325 68.3074 72.6299 49.2937 88.118 41.327Z"/>
</clipPath><filter id="filter1_dd_16_6150" x="37.2368" y="5.53076" width="107.111" height="107.111" filterUnits="userSpaceOnUse" color-interpolation-filters="sRGB">
<feFlood flood-opacity="0" result="BackgroundImageFix"/>
<feColorMatrix in="SourceAlpha" type="matrix" values="0 0 0 0 0 0 0 0 0 0 0 0 0 0 0 0 0 0 127 0" result="hardAlpha"/>
<feOffset dx="-21" dy="15"/>
<feGaussianBlur stdDeviation="25"/>
<feComposite in2="hardAlpha" operator="out"/>
<feColorMatrix type="matrix" values="0 0 0 0 0.113438 0 0 0 0 0.148981 0 0 0 0 0.275 0 0 0 0.25 0"/>
<feBlend mode="normal" in2="BackgroundImageFix" result="effect1_dropShadow_16_6150"/>
<feColorMatrix in="SourceAlpha" type="matrix" values="0 0 0 0 0 0 0 0 0 0 0 0 0 0 0 0 0 0 127 0" result="hardAlpha"/>
<feOffset/>
<feGaussianBlur stdDeviation="9"/>
<feComposite in2="hardAlpha" operator="out"/>
<feColorMatrix type="matrix" values="0 0 0 0 0.607843 0 0 0 0 0.392157 0 0 0 0 1 0 0 0 0.56 0"/>
<feBlend mode="normal" in2="effect1_dropShadow_16_6150" result="effect2_dropShadow_16_6150"/>
<feBlend mode="normal" in="SourceGraphic" in2="effect2_dropShadow_16_6150" result="shape"/>
</filter>
<clipPath id="bgblur_1_16_6150_clip_path" transform="translate(-37.2368 -5.53076)"><path d="M110.343 41.6146C110.769 40.1695 112.815 40.1695 113.242 41.6146C113.387 42.1067 113.772 42.4917 114.264 42.6368C115.709 43.0628 115.709 45.1097 114.264 45.5357C113.772 45.6808 113.387 46.0657 113.242 46.5579C112.815 48.003 110.769 48.003 110.343 46.5579C110.197 46.0657 109.813 45.6808 109.32 45.5357C107.875 45.1097 107.875 43.0628 109.32 42.6368C109.813 42.4917 110.197 42.1067 110.343 41.6146Z"/>
</clipPath><filter id="filter2_dd_16_6150" x="42.335" y="26.1838" width="109.356" height="109.357" filterUnits="userSpaceOnUse" color-interpolation-filters="sRGB">
<feFlood flood-opacity="0" result="BackgroundImageFix"/>
<feColorMatrix in="SourceAlpha" type="matrix" values="0 0 0 0 0 0 0 0 0 0 0 0 0 0 0 0 0 0 127 0" result="hardAlpha"/>
<feOffset dx="-21" dy="15"/>
<feGaussianBlur stdDeviation="25"/>
<feComposite in2="hardAlpha" operator="out"/>
<feColorMatrix type="matrix" values="0 0 0 0 0.113438 0 0 0 0 0.148981 0 0 0 0 0.275 0 0 0 0.25 0"/>
<feBlend mode="normal" in2="BackgroundImageFix" result="effect1_dropShadow_16_6150"/>
<feColorMatrix in="SourceAlpha" type="matrix" values="0 0 0 0 0 0 0 0 0 0 0 0 0 0 0 0 0 0 127 0" result="hardAlpha"/>
<feOffset/>
<feGaussianBlur stdDeviation="9"/>
<feComposite in2="hardAlpha" operator="out"/>
<feColorMatrix type="matrix" values="0 0 0 0 0.996078 0 0 0 0 0.764706 0 0 0 0 0.0117647 0 0 0 0.47 0"/>
<feBlend mode="normal" in2="effect1_dropShadow_16_6150" result="effect2_dropShadow_16_6150"/>
<feBlend mode="normal" in="SourceGraphic" in2="effect2_dropShadow_16_6150" result="shape"/>
</filter>
<clipPath id="bgblur_2_16_6150_clip_path" transform="translate(-42.335 -26.1838)"><path d="M116.106 62.61C116.667 60.7085 119.36 60.7085 119.921 62.61C120.111 63.2575 120.618 63.764 121.266 63.9549C123.167 64.5155 123.167 67.2087 121.266 67.7693C120.618 67.9602 120.111 68.4667 119.921 69.1143C119.36 71.0157 116.667 71.0157 116.106 69.1143C115.915 68.4667 115.409 67.9602 114.761 67.7693C112.86 67.2087 112.86 64.5155 114.761 63.9549C115.409 63.764 115.915 63.2575 116.106 62.61Z"/>
</clipPath><filter id="filter3_dd_16_6150" x="64.2397" y="20.0908" width="105.988" height="105.988" filterUnits="userSpaceOnUse" color-interpolation-filters="sRGB">
<feFlood flood-opacity="0" result="BackgroundImageFix"/>
<feColorMatrix in="SourceAlpha" type="matrix" values="0 0 0 0 0 0 0 0 0 0 0 0 0 0 0 0 0 0 127 0" result="hardAlpha"/>
<feOffset dx="-21" dy="15"/>
<feGaussianBlur stdDeviation="25"/>
<feComposite in2="hardAlpha" operator="out"/>
<feColorMatrix type="matrix" values="0 0 0 0 0.113438 0 0 0 0 0.148981 0 0 0 0 0.275 0 0 0 0.25 0"/>
<feBlend mode="normal" in2="BackgroundImageFix" result="effect1_dropShadow_16_6150"/>
<feColorMatrix in="SourceAlpha" type="matrix" values="0 0 0 0 0 0 0 0 0 0 0 0 0 0 0 0 0 0 127 0" result="hardAlpha"/>
<feOffset/>
<feGaussianBlur stdDeviation="9"/>
<feComposite in2="hardAlpha" operator="out"/>
<feColorMatrix type="matrix" values="0 0 0 0 0.607843 0 0 0 0 0.392157 0 0 0 0 1 0 0 0 0.56 0"/>
<feBlend mode="normal" in2="effect1_dropShadow_16_6150" result="effect2_dropShadow_16_6150"/>
<feBlend mode="normal" in="SourceGraphic" in2="effect2_dropShadow_16_6150" result="shape"/>
</filter>
<clipPath id="bgblur_3_16_6150_clip_path" transform="translate(-64.2397 -20.0908)"><path d="M137.013 56.0036C137.372 54.7866 139.096 54.7866 139.454 56.0036C139.577 56.418 139.901 56.7422 140.315 56.8643C141.532 57.2231 141.532 58.9468 140.315 59.3056C139.901 59.4278 139.577 59.7519 139.454 60.1663C139.096 61.3833 137.372 61.3833 137.013 60.1663C136.891 59.7519 136.567 59.4278 136.152 59.3056C134.936 58.9468 134.936 57.2231 136.152 56.8643C136.567 56.7422 136.891 56.418 137.013 56.0036Z"/>
</clipPath><filter id="filter4_dd_16_6150" x="57.2402" y="1.8147" width="105.988" height="105.988" filterUnits="userSpaceOnUse" color-interpolation-filters="sRGB">
<feFlood flood-opacity="0" result="BackgroundImageFix"/>
<feColorMatrix in="SourceAlpha" type="matrix" values="0 0 0 0 0 0 0 0 0 0 0 0 0 0 0 0 0 0 127 0" result="hardAlpha"/>
<feOffset dx="-21" dy="15"/>
<feGaussianBlur stdDeviation="25"/>
<feComposite in2="hardAlpha" operator="out"/>
<feColorMatrix type="matrix" values="0 0 0 0 0.113438 0 0 0 0 0.148981 0 0 0 0 0.275 0 0 0 0.25 0"/>
<feBlend mode="normal" in2="BackgroundImageFix" result="effect1_dropShadow_16_6150"/>
<feColorMatrix in="SourceAlpha" type="matrix" values="0 0 0 0 0 0 0 0 0 0 0 0 0 0 0 0 0 0 127 0" result="hardAlpha"/>
<feOffset/>
<feGaussianBlur stdDeviation="9"/>
<feComposite in2="hardAlpha" operator="out"/>
<feColorMatrix type="matrix" values="0 0 0 0 0.996078 0 0 0 0 0.764706 0 0 0 0 0.0117647 0 0 0 0.47 0"/>
<feBlend mode="normal" in2="effect1_dropShadow_16_6150" result="effect2_dropShadow_16_6150"/>
<feBlend mode="normal" in="SourceGraphic" in2="effect2_dropShadow_16_6150" result="shape"/>
</filter>
<clipPath id="bgblur_4_16_6150_clip_path" transform="translate(-57.2402 -1.8147)"><path d="M130.014 37.7275C130.373 36.5105 132.096 36.5105 132.455 37.7275C132.577 38.1419 132.901 38.466 133.316 38.5882C134.533 38.947 134.533 40.6707 133.316 41.0294C132.901 41.1516 132.577 41.4758 132.455 41.8902C132.096 43.1071 130.373 43.1071 130.014 41.8902C129.892 41.4758 129.567 41.1516 129.153 41.0294C127.936 40.6707 127.936 38.947 129.153 38.5882C129.567 38.466 129.892 38.1419 130.014 37.7275Z"/>
</clipPath><linearGradient id="paint0_linear_16_6150" x1="82.5507" y1="44.8154" x2="111.4" y2="100.903" gradientUnits="userSpaceOnUse">
<stop offset="0.0001" stop-color="#FFCB2F"/>
<stop offset="1" stop-color="#FFCB2F"/>
</linearGradient>
<linearGradient id="paint1_linear_16_6150" x1="85.9161" y1="13.8594" x2="104.12" y2="87.4684" gradientUnits="userSpaceOnUse">
<stop stop-color="white"/>
<stop offset="1" stop-color="white" stop-opacity="0"/>
</linearGradient>
<linearGradient id="paint2_linear_16_6150" x1="111.457" y1="36.8282" x2="111.457" y2="51.6046" gradientUnits="userSpaceOnUse">
<stop offset="0.0001" stop-color="#FFCB2F"/>
<stop offset="1" stop-color="#FFCB2F"/>
</linearGradient>
<linearGradient id="paint3_linear_16_6150" x1="111.792" y1="36.698" x2="111.792" y2="45.8361" gradientUnits="userSpaceOnUse">
<stop stop-color="white"/>
<stop offset="1" stop-color="white" stop-opacity="0"/>
</linearGradient>
<linearGradient id="paint4_linear_16_6150" x1="118.013" y1="56.1407" x2="118.013" y2="75.5835" gradientUnits="userSpaceOnUse">
<stop stop-color="#FFE600"/>
<stop offset="1" stop-color="#FF7A00"/>
</linearGradient>
<linearGradient id="paint5_linear_16_6150" x1="118.013" y1="56.1407" x2="118.013" y2="68.1645" gradientUnits="userSpaceOnUse">
<stop stop-color="white"/>
<stop offset="1" stop-color="white" stop-opacity="0"/>
</linearGradient>
<linearGradient id="paint6_linear_16_6150" x1="137.951" y1="51.9729" x2="137.951" y2="64.4162" gradientUnits="userSpaceOnUse">
<stop offset="0.0001" stop-color="#FFCB2F"/>
<stop offset="1" stop-color="#FFCB2F"/>
</linearGradient>
<linearGradient id="paint7_linear_16_6150" x1="138.234" y1="51.8633" x2="138.234" y2="59.5585" gradientUnits="userSpaceOnUse">
<stop stop-color="white"/>
<stop offset="1" stop-color="white" stop-opacity="0"/>
</linearGradient>
<linearGradient id="paint8_linear_16_6150" x1="131.234" y1="33.5872" x2="131.234" y2="46.0305" gradientUnits="userSpaceOnUse">
<stop stop-color="#FFE600"/>
<stop offset="1" stop-color="#FF7A00"/>
</linearGradient>
<linearGradient id="paint9_linear_16_6150" x1="131.234" y1="33.5872" x2="131.234" y2="41.2824" gradientUnits="userSpaceOnUse">
<stop stop-color="white"/>
<stop offset="1" stop-color="white" stop-opacity="0"/>
</linearGradient>
</defs>
</svg>
