<svg overflow="visible" width="181" height="172" viewBox="0 0 181 172" fill="none" xmlns="http://www.w3.org/2000/svg">
<g filter="url(#filter0_f_16_6155)">
<circle cx="89.299" cy="53.2291" r="29.2291" fill="#FFC701" fill-opacity="0.5"/>
</g>
<circle cx="89.2992" cy="54.1875" r="27.2898" fill="url(#paint0_linear_16_6155)" stroke="url(#paint1_linear_16_6155)" stroke-width="1.96207"/>
<mask id="mask0_16_6155" style="mask-type:alpha" maskUnits="userSpaceOnUse" x="61" y="41" width="57" height="42">
<path d="M117.57 54.1877C117.57 69.8012 104.913 82.4585 89.2992 82.4585C73.6856 82.4585 61.0283 69.8012 61.0283 54.1877C61.0283 38.5742 71.5294 42.2085 87.1429 42.2085C102.756 42.2085 117.57 38.5742 117.57 54.1877Z" fill="url(#paint2_linear_16_6155)"/>
</mask>
<g mask="url(#mask0_16_6155)">
<g filter="url(#filter1_f_16_6155)">
<path d="M111.581 85.3364C111.66 85.3355 111.74 85.3335 111.82 85.3335C123.199 85.3335 132.424 94.5586 132.424 105.938C132.424 117.317 123.199 126.542 111.82 126.542C111.74 126.542 111.66 126.539 111.581 126.538V126.542H39.2261L39.2271 126.539C39.1471 126.539 39.067 126.542 38.9868 126.542C27.6075 126.542 18.3823 117.317 18.3823 105.938C18.3824 94.5587 27.6075 85.3345 38.9868 85.3345C48.7956 85.3345 57.0018 92.1886 59.0806 101.369L66.0601 92.521L87.8618 85.3335H111.581V85.3364Z" fill="#E18700"/>
</g>
</g>
<foreignObject x="-0.000228882" y="17.4552" width="180.521" height="153.857"><div xmlns="http://www.w3.org/1999/xhtml" style="backdrop-filter:blur(6.87px);clip-path:url(#bgblur_0_16_6155_clip_path);height:100%;width:100%"></div></foreignObject><g filter="url(#filter2_d_16_6155)" data-figma-bg-blur-radius="13.7345">
<mask id="path-5-inside-1_16_6155" fill="white">
<path d="M110.515 51.7915C123.137 51.7915 133.37 62.0245 133.37 74.647C133.37 75.7041 133.296 76.7442 133.157 77.7632H137.006V77.7651C137.064 77.7645 137.122 77.7632 137.18 77.7632C145.403 77.7633 152.07 84.4301 152.07 92.6538C152.07 100.877 145.403 107.544 137.18 107.544C137.122 107.544 137.064 107.542 137.006 107.542V107.544H84.7168L84.7178 107.542C84.6599 107.542 84.602 107.544 84.5439 107.544C76.3202 107.544 69.6534 100.878 69.6533 92.6538C69.6533 84.4301 76.3202 77.7632 84.5439 77.7632C85.7076 77.7632 86.8399 77.8974 87.9268 78.1499C87.7511 77.0079 87.6602 75.8381 87.6602 74.647C87.6602 62.0246 97.8924 51.7918 110.515 51.7915Z"/>
</mask>
<path d="M110.515 51.7915C123.137 51.7915 133.37 62.0245 133.37 74.647C133.37 75.7041 133.296 76.7442 133.157 77.7632H137.006V77.7651C137.064 77.7645 137.122 77.7632 137.18 77.7632C145.403 77.7633 152.07 84.4301 152.07 92.6538C152.07 100.877 145.403 107.544 137.18 107.544C137.122 107.544 137.064 107.542 137.006 107.542V107.544H84.7168L84.7178 107.542C84.6599 107.542 84.602 107.544 84.5439 107.544C76.3202 107.544 69.6534 100.878 69.6533 92.6538C69.6533 84.4301 76.3202 77.7632 84.5439 77.7632C85.7076 77.7632 86.8399 77.8974 87.9268 78.1499C87.7511 77.0079 87.6602 75.8381 87.6602 74.647C87.6602 62.0246 97.8924 51.7918 110.515 51.7915Z" fill="url(#paint3_linear_16_6155)" shape-rendering="crispEdges"/>
<path d="M110.515 51.7915V49.8294H110.515L110.515 51.7915ZM133.37 74.647L135.332 74.647V74.647H133.37ZM133.157 77.7632L131.213 77.4981C131.137 78.0595 131.306 78.6266 131.679 79.0534C132.052 79.4803 132.591 79.7253 133.157 79.7253V77.7632ZM137.006 77.7632H138.968C138.968 76.6796 138.089 75.8011 137.006 75.8011V77.7632ZM137.006 77.7651H135.044C135.044 78.2894 135.254 78.7918 135.626 79.1604C135.999 79.529 136.504 79.7331 137.028 79.7271L137.006 77.7651ZM137.18 77.7632L137.18 75.8011H137.18V77.7632ZM152.07 92.6538L154.032 92.6538V92.6538H152.07ZM137.18 107.544V109.507H137.18L137.18 107.544ZM137.006 107.542L137.028 105.58C136.504 105.574 135.999 105.778 135.626 106.146C135.254 106.515 135.044 107.017 135.044 107.542H137.006ZM137.006 107.544V109.507C138.089 109.507 138.968 108.628 138.968 107.544H137.006ZM84.7168 107.544L82.8554 106.924C82.656 107.522 82.7563 108.18 83.1251 108.692C83.4939 109.203 84.0861 109.507 84.7168 109.507V107.544ZM84.7178 107.542L86.5792 108.162C86.7799 107.56 86.6769 106.898 86.3029 106.385C85.9288 105.872 85.3299 105.572 84.6953 105.58L84.7178 107.542ZM84.5439 107.544V109.507H84.544L84.5439 107.544ZM69.6533 92.6538H67.6912V92.6538L69.6533 92.6538ZM84.5439 77.7632L84.544 75.8011H84.5439V77.7632ZM87.9268 78.1499L87.4827 80.0611C88.117 80.2084 88.7831 80.0315 89.2607 79.5888C89.7382 79.146 89.965 78.4952 89.866 77.8516L87.9268 78.1499ZM87.6602 74.647H85.6981V74.647L87.6602 74.647ZM110.515 51.7915V53.7536C122.054 53.7536 131.408 63.1081 131.408 74.647H133.37H135.332C135.332 60.9409 124.221 49.8294 110.515 49.8294V51.7915ZM133.37 74.647L131.408 74.6469C131.408 75.6125 131.341 76.564 131.213 77.4981L133.157 77.7632L135.101 78.0283C135.252 76.9244 135.332 75.7957 135.332 74.647L133.37 74.647ZM133.157 77.7632V79.7253H137.006V77.7632V75.8011H133.157V77.7632ZM137.006 77.7632H135.044V77.7651H137.006H138.968V77.7632H137.006ZM137.006 77.7651L137.028 79.7271C137.116 79.7261 137.135 79.7253 137.18 79.7253V77.7632V75.8011C137.108 75.8011 137.011 75.8029 136.983 75.8032L137.006 77.7651ZM137.18 77.7632L137.18 79.7253C144.32 79.7254 150.108 85.5138 150.108 92.6538H152.07H154.032C154.032 83.3465 146.487 75.8013 137.18 75.8011L137.18 77.7632ZM152.07 92.6538L150.108 92.6538C150.108 99.7938 144.32 105.582 137.18 105.582L137.18 107.544L137.18 109.507C146.487 109.506 154.032 101.961 154.032 92.6538L152.07 92.6538ZM137.18 107.544V105.582C137.109 105.582 137.186 105.581 137.028 105.58L137.006 107.542L136.983 109.503C136.998 109.504 137.012 109.504 137.049 109.505C137.079 109.505 137.127 109.507 137.18 109.507V107.544ZM137.006 107.542H135.044V107.544H137.006H138.968V107.542H137.006ZM137.006 107.544V105.582H84.7168V107.544V109.507H137.006V107.544ZM84.7168 107.544L86.5782 108.165L86.5792 108.162L84.7178 107.542L82.8564 106.921L82.8554 106.924L84.7168 107.544ZM84.7178 107.542L84.6953 105.58C84.5378 105.581 84.6144 105.582 84.5439 105.582L84.5439 107.544L84.544 109.507C84.5965 109.507 84.6442 109.505 84.6749 109.505C84.7118 109.504 84.7252 109.504 84.7403 109.503L84.7178 107.542ZM84.5439 107.544V105.582C77.4039 105.582 71.6154 99.7939 71.6154 92.6538L69.6533 92.6538L67.6912 92.6538C67.6913 101.961 75.2366 109.507 84.5439 109.507V107.544ZM69.6533 92.6538H71.6154C71.6154 85.5137 77.4038 79.7253 84.5439 79.7253V77.7632V75.8011C75.2366 75.8011 67.6912 83.3464 67.6912 92.6538H69.6533ZM84.5439 77.7632L84.5439 79.7253C85.5562 79.7253 86.5397 79.842 87.4827 80.0611L87.9268 78.1499L88.3708 76.2387C87.1402 75.9528 85.8589 75.8011 84.544 75.8011L84.5439 77.7632ZM87.9268 78.1499L89.866 77.8516C89.7055 76.8082 89.6222 75.7381 89.6222 74.6469L87.6602 74.647L85.6981 74.647C85.6981 75.9381 85.7967 77.2076 85.9875 78.4482L87.9268 78.1499ZM87.6602 74.647H89.6222C89.6222 63.1082 98.9761 53.7538 110.515 53.7536L110.515 51.7915L110.515 49.8294C96.8087 49.8297 85.6981 60.9411 85.6981 74.647H87.6602Z" fill="url(#paint4_linear_16_6155)" mask="url(#path-5-inside-1_16_6155)"/>
</g>
<defs>
<filter id="filter0_f_16_6155" x="16.9042" y="-19.1656" width="144.79" height="144.789" filterUnits="userSpaceOnUse" color-interpolation-filters="sRGB">
<feFlood flood-opacity="0" result="BackgroundImageFix"/>
<feBlend mode="normal" in="SourceGraphic" in2="BackgroundImageFix" result="shape"/>
<feGaussianBlur stdDeviation="21.5828" result="effect1_foregroundBlur_16_6155"/>
</filter>
<filter id="filter1_f_16_6155" x="4.64782" y="71.599" width="141.511" height="68.678" filterUnits="userSpaceOnUse" color-interpolation-filters="sRGB">
<feFlood flood-opacity="0" result="BackgroundImageFix"/>
<feBlend mode="normal" in="SourceGraphic" in2="BackgroundImageFix" result="shape"/>
<feGaussianBlur stdDeviation="6.86725" result="effect1_foregroundBlur_16_6155"/>
</filter>
<filter id="filter2_d_16_6155" x="-0.000228882" y="17.4552" width="180.521" height="153.857" filterUnits="userSpaceOnUse" color-interpolation-filters="sRGB">
<feFlood flood-opacity="0" result="BackgroundImageFix"/>
<feColorMatrix in="SourceAlpha" type="matrix" values="0 0 0 0 0 0 0 0 0 0 0 0 0 0 0 0 0 0 127 0" result="hardAlpha"/>
<feOffset dx="-20.6018" dy="14.7155"/>
<feGaussianBlur stdDeviation="24.5259"/>
<feComposite in2="hardAlpha" operator="out"/>
<feColorMatrix type="matrix" values="0 0 0 0 0.113438 0 0 0 0 0.148981 0 0 0 0 0.275 0 0 0 0.25 0"/>
<feBlend mode="normal" in2="BackgroundImageFix" result="effect1_dropShadow_16_6155"/>
<feBlend mode="normal" in="SourceGraphic" in2="effect1_dropShadow_16_6155" result="shape"/>
</filter>
<clipPath id="bgblur_0_16_6155_clip_path" transform="translate(0.000228882 -17.4552)"><path d="M110.515 51.7915C123.137 51.7915 133.37 62.0245 133.37 74.647C133.37 75.7041 133.296 76.7442 133.157 77.7632H137.006V77.7651C137.064 77.7645 137.122 77.7632 137.18 77.7632C145.403 77.7633 152.07 84.4301 152.07 92.6538C152.07 100.877 145.403 107.544 137.18 107.544C137.122 107.544 137.064 107.542 137.006 107.542V107.544H84.7168L84.7178 107.542C84.6599 107.542 84.602 107.544 84.5439 107.544C76.3202 107.544 69.6534 100.878 69.6533 92.6538C69.6533 84.4301 76.3202 77.7632 84.5439 77.7632C85.7076 77.7632 86.8399 77.8974 87.9268 78.1499C87.7511 77.0079 87.6602 75.8381 87.6602 74.647C87.6602 62.0246 97.8924 51.7918 110.515 51.7915Z"/>
</clipPath><linearGradient id="paint0_linear_16_6155" x1="89.2992" y1="25.9166" x2="89.2992" y2="82.4583" gradientUnits="userSpaceOnUse">
<stop stop-color="#FFE600"/>
<stop offset="1" stop-color="#FF7A00"/>
</linearGradient>
<linearGradient id="paint1_linear_16_6155" x1="89.2992" y1="25.9166" x2="89.2992" y2="82.4583" gradientUnits="userSpaceOnUse">
<stop stop-color="white"/>
<stop offset="1" stop-color="white" stop-opacity="0"/>
</linearGradient>
<linearGradient id="paint2_linear_16_6155" x1="89.2992" y1="25.9169" x2="89.2992" y2="82.4585" gradientUnits="userSpaceOnUse">
<stop stop-color="#FFD600"/>
<stop offset="1" stop-color="#FF7A00"/>
</linearGradient>
<linearGradient id="paint3_linear_16_6155" x1="114.695" y1="53.4686" x2="114.695" y2="113.844" gradientUnits="userSpaceOnUse">
<stop stop-color="white"/>
<stop offset="1" stop-color="white" stop-opacity="0"/>
</linearGradient>
<linearGradient id="paint4_linear_16_6155" x1="110.862" y1="51.7915" x2="110.862" y2="107.544" gradientUnits="userSpaceOnUse">
<stop stop-color="white"/>
<stop offset="1" stop-color="white" stop-opacity="0"/>
</linearGradient>
</defs>
</svg>
