<svg preserveAspectRatio="none" width="100%" height="100%" overflow="visible" style="display: block;" viewBox="0 0 23 24" fill="none" xmlns="http://www.w3.org/2000/svg">
<g id="Group 48">
<path id="Union" d="M11.5 0C12.6046 0 13.5 0.895431 13.5 2H21C22.1046 2 23 2.89543 23 4V16C23 17.1046 22.1046 18 21 18H15.7168L17.8477 21.6914C18.2619 22.4088 18.0163 23.326 17.2988 23.7402C16.5814 24.1543 15.6642 23.9088 15.25 23.1914L13 19.2939V22.5C13 23.3284 12.3284 24 11.5 24C10.6716 24 10 23.3284 10 22.5V19.4629L7.84766 23.1914C7.43338 23.9087 6.51619 24.1544 5.79883 23.7402C5.08158 23.326 4.83587 22.4088 5.25 21.6914L7.38086 18H2C0.895431 18 0 17.1046 0 16V4C0 2.89543 0.895431 2 2 2H9.5C9.5 0.895431 10.3954 0 11.5 0Z" fill="var(--fill-0, #E4E4E4)"/>
</g>
</svg>
