<svg preserveAspectRatio="none" width="100%" height="100%" overflow="visible" style="display: block;" viewBox="0 0 17.9999 17.9998" fill="none" xmlns="http://www.w3.org/2000/svg">
<path id="Vector" d="M6.64746 0C10.3183 0.000217309 13.2939 2.97653 13.2939 6.64746C13.2938 8.12123 12.8117 9.48302 12 10.585L17.707 16.293C18.0974 16.6835 18.0975 17.3165 17.707 17.707C17.3165 18.0974 16.6835 18.0974 16.293 17.707L10.585 12C9.48298 12.8117 8.12127 13.2939 6.64746 13.2939C2.97661 13.2939 0.000349247 10.3182 0 6.64746C0 2.97639 2.97639 0 6.64746 0ZM6.64746 2C4.08096 2 2 4.08096 2 6.64746C2.00035 9.21366 4.08118 11.2939 6.64746 11.2939C7.93077 11.2938 9.09067 10.7745 9.93262 9.93262C10.7745 9.09071 11.2938 7.93073 11.2939 6.64746C11.2939 4.0811 9.21378 2.00022 6.64746 2Z" fill="var(--fill-0, #787878)"/>
</svg>
